<svg xmlns:mydata="http://www.w3.org/2000/svg" mydata:contrastcolor="012169" mydata:template="BlackAndHighlightColorHex1" mydata:presentation="2.5" mydata:layoutType="undefined" mydata:specialFontId="undefined" mydata:id1="270" mydata:id2="809" mydata:companyName="Rollers" mydata:companyTagline="on the Rye" version="1.1" xmlns="http://www.w3.org/2000/svg" xmlns:xlink="http://www.w3.org/1999/xlink" width="550" height="940"><defs><linearGradient x1="121.88701" y1="235" x2="428.11299" y2="235" gradientUnits="userSpaceOnUse" id="color-1"><stop offset="0" stop-color="#d0e6a5"></stop><stop offset="1" stop-color="#ffdd94"></stop></linearGradient></defs><g fill="url(#color-1)" fill-rule="nonzero" stroke="none" stroke-width="1" stroke-linecap="butt" stroke-linejoin="miter" stroke-miterlimit="10" stroke-dasharray="" stroke-dashoffset="0" font-family="none" font-weight="none" font-size="none" text-anchor="none" style="mix-blend-mode: normal"><g data-paper-data="{&quot;isGlobalGroup&quot;:true}"><g data-paper-data="{&quot;isSecondaryText&quot;:true}"><path d="M150.9347,283.69411c-0.6014,1.11689 -0.92358,2.29821 -0.92358,3.62988c0,1.31019 0.32218,2.53448 0.92358,3.65136c0.64436,1.11689 1.5035,1.99751 2.57743,2.64187c1.07393,0.64436 2.23377,0.96654 3.50101,0.96654c1.28872,0 2.44856,-0.32218 3.52249,-0.96654c1.09541,-0.64436 1.95455,-1.52498 2.55595,-2.64187c0.64436,-1.11689 0.94506,-2.31969 0.94506,-3.62988c0,-1.33167 -0.3007,-2.53448 -0.94506,-3.65136c-0.6014,-1.13837 -1.43907,-2.01899 -2.53448,-2.66335c-1.07393,-0.64436 -2.23377,-0.96654 -3.52249,-0.96654c-1.26724,0 -2.44856,0.32218 -3.52249,0.96654c-1.07393,0.64436 -1.93307,1.52498 -2.57743,2.66335zM161.0726,287.32399c0,1.15984 -0.38661,2.14786 -1.18132,2.98553c-0.77323,0.81619 -1.71829,1.24576 -2.83518,1.24576c-1.09541,0 -2.04047,-0.42957 -2.83518,-1.24576c-0.77323,-0.83767 -1.18132,-1.82568 -1.18132,-2.98553c0,-1.18132 0.40809,-2.16934 1.18132,-2.98553c0.79471,-0.83767 1.73977,-1.24576 2.83518,-1.24576c1.11689,0 2.06195,0.38661 2.83518,1.22428c0.79471,0.81619 1.18132,1.82568 1.18132,3.007z" data-paper-data="{&quot;glyphName&quot;:&quot;O&quot;,&quot;glyphIndex&quot;:0,&quot;firstGlyphOfWord&quot;:true,&quot;word&quot;:1}"></path><path d="M192.92136,279.99979v8.6344l-5.17634,-8.6344h-3.02848v11.79175l3.02848,2.72778v-8.6344l5.17634,8.6344l3.02848,-2.72778v-11.79175z" data-paper-data="{&quot;glyphName&quot;:&quot;N&quot;,&quot;glyphIndex&quot;:1,&quot;lastGlyphOfWord&quot;:true,&quot;word&quot;:1}"></path><path d="M235.14851,280.10718v3.02848h3.97354v8.78475l3.02848,2.7063v-11.49105h3.93058v-3.02848z" data-paper-data="{&quot;glyphName&quot;:&quot;T&quot;,&quot;glyphIndex&quot;:2,&quot;firstGlyphOfWord&quot;:true,&quot;word&quot;:2}"></path><path d="M265.65085,280.10718v11.70584l3.02848,2.72778v-6.01401h5.62739v6.01401l3.02848,-2.7063v-11.72732h-3.02848v5.41261h-5.62739v-5.41261z" data-paper-data="{&quot;glyphName&quot;:&quot;H&quot;,&quot;glyphIndex&quot;:3,&quot;word&quot;:2}"></path><path d="M296.12979,280.17161v11.61992l2.23377,2.72778h6.78724v-3.007h-5.99253v-2.98553h5.60592v-2.98553h-5.60592v-2.38413h3.52249l2.44856,-2.98553z" data-paper-data="{&quot;glyphName&quot;:&quot;E&quot;,&quot;glyphIndex&quot;:4,&quot;lastGlyphOfWord&quot;:true,&quot;word&quot;:2}"></path><path d="M343.0082,280.06422v11.72732l3.02848,2.72778v-4.98304h1.26724c0.34366,0 0.68732,-0.02148 1.00949,-0.04296l1.95455,5.02599l2.19082,-2.68483l-1.28872,-3.32918c0.08591,-0.08591 0.17183,-0.15035 0.23626,-0.19331c0.96654,-0.83767 1.43907,-2.08342 1.43907,-3.75876c0,-1.5035 -0.45105,-2.62039 -1.35315,-3.35066c-0.9021,-0.77323 -2.2123,-1.13837 -3.93058,-1.13837zM346.03669,283.07123h1.35315c0.38661,0 0.73027,0.04296 1.07393,0.12887c0.34366,0.08591 0.66584,0.25774 0.92358,0.51549c0.27922,0.23626 0.40809,0.55844 0.40809,0.96654c0,0.53697 -0.25774,0.98802 -0.77323,1.33167c-0.47253,0.34366 -0.98802,0.51549 -1.58942,0.51549h-1.39611z" data-paper-data="{&quot;glyphName&quot;:&quot;R&quot;,&quot;glyphIndex&quot;:5,&quot;firstGlyphOfWord&quot;:true,&quot;word&quot;:3}"></path><path d="M372.38029,280.17161l4.85416,9.10693v2.513l3.007,2.72778v-5.30522l4.83269,-9.04249h-3.4151l-2.94257,5.49852l-2.92109,-5.49852z" data-paper-data="{&quot;glyphName&quot;:&quot;Y&quot;,&quot;glyphIndex&quot;:6,&quot;word&quot;:3}"></path><path d="M404.27807,280.17161v11.61992l2.23377,2.72778h6.78724v-3.007h-5.99253v-2.98553h5.60592v-2.98553h-5.60592v-2.38413h3.52249l2.44856,-2.98553z" data-paper-data="{&quot;glyphName&quot;:&quot;E&quot;,&quot;glyphIndex&quot;:7,&quot;lastGlyphOfWord&quot;:true,&quot;word&quot;:3}"></path></g><g data-paper-data="{&quot;isPrimaryText&quot;:true}"><path d="M218.94441,263.55649c-22.97685,0 -34.94066,-18.61917 -34.94066,-37.39681c0,-1.18846 0.07923,-2.29769 0.15846,-3.48614c21.5507,-5.54614 33.51451,-18.14379 33.51451,-28.99837c0,-9.90382 -10.14151,-18.30225 -32.16759,-18.30225c-25.98761,0 -63.62211,15.37072 -63.62211,35.41604c0,8.95305 5.54614,14.57842 16.00457,14.57842c10.77535,0 24.79915,-6.97229 33.91066,-19.64917c-8.16074,14.89534 -17.27225,29.31529 -26.38376,43.1014h14.65765c9.3492,-19.25302 17.9061,-37.07988 30.82067,-57.44213h-12.35996c-9.26997,13.54842 -25.82915,23.53147 -35.09912,23.53147c-4.27845,0 -6.81382,-2.21845 -6.81382,-6.10075c0,-12.67688 30.1076,-25.19531 47.93447,-25.19531c13.31073,0 19.25302,5.30845 19.25302,11.96381c0,8.39844 -9.58689,18.85686 -25.98761,23.13531c-1.10923,5.38768 -1.58461,10.45843 -1.58461,15.21226c0,26.14607 15.8461,41.19987 42.46756,41.19987l6.89306,-12.12227c-2.29769,0.31692 -4.51614,0.55461 -6.65536,0.55461z" data-paper-data="{&quot;glyphName&quot;:&quot;R&quot;,&quot;glyphIndex&quot;:0,&quot;firstGlyphOfWord&quot;:true,&quot;word&quot;:1}"></path><path d="M249.21046,230.83428c-2.45615,0 -4.51614,-0.23769 -6.33844,-0.63384c0.95077,-2.29769 1.58461,-4.83306 1.58461,-7.60613c0.07923,-4.35768 -2.93153,-6.4969 -6.10075,-6.4969c-3.6446,0 -7.44767,2.69384 -7.44767,7.5269c0,3.6446 1.58461,6.17998 3.96153,7.92305c-3.16922,4.19922 -7.5269,6.33844 -11.09227,6.33844c-3.72383,0 -6.65536,-2.37692 -6.73459,-7.28921c0,-7.5269 8.87382,-17.98533 21.15455,-17.98533h1.66384l1.18846,-4.43691c-1.98076,-0.23769 -3.8823,-0.31692 -5.7046,-0.31692c-20.36224,0 -31.53375,13.86534 -31.53375,23.6107c0,9.90382 6.65536,14.26149 14.57842,14.26149c8.00228,0 17.27225,-4.35768 22.34301,-11.72612c2.61461,0.63384 5.54614,0.87154 8.47767,0.87154z" data-paper-data="{&quot;glyphName&quot;:&quot;o&quot;,&quot;glyphIndex&quot;:1,&quot;word&quot;:1}"></path><path d="M257.52967,245.49193c4.6746,0 12.67688,-2.69384 22.26378,-15.52918l-5.14998,-0.87154c-3.72383,6.57613 -9.26997,8.5569 -11.32996,8.5569c-2.29769,0 -3.16922,-1.50538 -3.16922,-3.48614c0,-1.18846 0.31692,-2.61461 0.87154,-3.96153c3.80307,-9.58689 24.71992,-47.45908 24.71992,-47.45908h-12.2015c0,0 -12.91458,23.29377 -21.31301,39.37757c-2.45615,4.75383 -3.96153,9.50766 -3.96153,13.46919c0,5.86306 3.56537,9.90382 9.26997,9.90382z" data-paper-data="{&quot;glyphName&quot;:&quot;l&quot;,&quot;glyphIndex&quot;:2,&quot;word&quot;:1}"></path><path d="M282.0119,245.49193c4.6746,0 12.67688,-2.69384 22.26378,-15.52918l-5.14998,-0.87154c-3.72383,6.57613 -9.26997,8.5569 -11.32996,8.5569c-2.29769,0 -3.16922,-1.50538 -3.16922,-3.48614c0,-1.18846 0.31692,-2.61461 0.87154,-3.96153c3.80307,-9.58689 24.71992,-47.45908 24.71992,-47.45908h-12.2015c0,0 -12.91458,23.29377 -21.31301,39.37757c-2.45615,4.75383 -3.96153,9.50766 -3.96153,13.46919c0,5.86306 3.56537,9.90382 9.26997,9.90382z" data-paper-data="{&quot;glyphName&quot;:&quot;l&quot;,&quot;glyphIndex&quot;:3,&quot;word&quot;:1}"></path><path d="M342.46479,228.77429c-6.33844,6.57613 -15.8461,11.32996 -23.6107,11.32996c-4.99152,0 -8.79459,-2.37692 -8.79459,-8.3192v-0.07923c1.8223,0.71307 4.43691,1.42615 7.60613,1.42615c4.35768,0 9.82458,-1.34692 15.52918,-6.10075c3.96153,-3.08999 6.02152,-7.05152 6.02152,-10.53766c0,-4.83306 -3.96153,-8.79459 -12.67688,-8.79459c-16.16303,0 -28.91914,12.51842 -28.91914,23.84839c0,9.82458 7.5269,14.26149 16.8761,14.26149c11.1715,0 23.84839,-5.54614 32.24682,-15.44995zM318.06179,216.88971c3.16922,-2.53538 6.65536,-4.11999 9.11151,-4.11999c1.98076,0 2.8523,1.03 2.8523,2.53538c0,2.29769 -1.98076,5.62537 -4.99152,8.00228c-3.08999,2.45615 -7.44767,4.04076 -11.64689,4.04076c-0.87154,0 -1.74307,-0.07923 -2.61461,-0.23769c1.26769,-4.04076 4.11999,-7.68536 7.28921,-10.22074z" data-paper-data="{&quot;glyphName&quot;:&quot;e&quot;,&quot;glyphIndex&quot;:4,&quot;word&quot;:1}"></path><path d="M383.58543,229.72505c-3.48614,5.86306 -7.60613,8.95305 -10.22074,8.95305c-2.13922,0 -3.8823,-1.8223 -3.8823,-4.6746c0,-5.7046 4.83306,-15.0538 11.09227,-22.73916l-1.74307,-2.29769c-6.57613,1.03 -12.04304,2.13922 -15.8461,2.13922c-1.58461,0 -2.77307,-0.15846 -3.72383,-0.63384c4.99152,-0.55461 8.23997,-3.56537 8.23997,-7.36844c0,-3.72383 -2.93153,-5.38768 -6.41767,-5.38768c-5.30845,0 -11.96381,3.72383 -11.96381,9.98305c0,2.77307 1.26769,4.91229 3.24845,6.41767c-13.46919,12.04304 -19.41148,31.53375 -19.41148,31.53375l9.90382,0.07923c0,0 3.80307,-18.38148 14.10303,-29.63222c1.10923,0.23769 2.37692,0.39615 3.6446,0.39615c1.8223,0 3.80307,-0.23769 5.7046,-0.87154c-6.4969,6.41767 -9.50766,13.38996 -9.50766,19.88686c0,7.36844 4.35768,10.53766 9.98305,10.53766c7.05152,0 15.92534,-4.99152 20.12455,-15.60841z" data-paper-data="{&quot;glyphName&quot;:&quot;r&quot;,&quot;glyphIndex&quot;:5,&quot;word&quot;:1}"></path><path d="M423.75531,228.77429c-3.80307,3.8823 -8.63613,7.20998 -13.62765,9.19074c4.27845,-3.72383 5.86306,-7.28921 5.86306,-10.53766c0,-7.05152 -5.94229,-11.32996 -5.94229,-18.46071c0,-0.55461 0.07923,-1.03 0.07923,-1.58461h-10.3792l-0.07923,-0.07923c-0.79231,3.08999 -5.22921,13.62765 -10.3792,19.33225c-0.71307,-0.39615 -1.50538,-0.63384 -2.45615,-0.63384c-1.66384,0 -3.32768,0.71307 -4.51614,1.90153c-2.13922,2.13922 -3.24845,4.75383 -3.24845,7.28921c0,5.62537 5.14998,10.61689 16.55918,10.61689h0.07923h0.15846c11.96381,0 23.84839,-5.54614 32.24682,-15.44995zM392.30079,238.28195c-2.53538,0 -4.35768,-0.63384 -5.46691,-1.66384c2.45615,-1.03 4.35768,-3.40691 4.43691,-5.94229c3.8823,-4.27845 6.97229,-10.14151 8.95305,-14.49919c0.79231,2.8523 2.8523,6.10075 2.8523,11.01304c0,4.75383 -2.77307,11.09227 -10.77535,11.09227z" data-paper-data="{&quot;glyphName&quot;:&quot;s&quot;,&quot;glyphIndex&quot;:6,&quot;lastGlyphOfWord&quot;:true,&quot;word&quot;:1}"></path></g><path d="M190.14757,150.14739c11.07134,-11.07157 23.78549,-19.6436 38.14246,-25.71608c14.86502,-6.28754 30.43501,-9.43131 46.70997,-9.43131c16.27496,0 31.84495,3.14377 46.70997,9.43131c14.35697,6.07243 27.07112,14.64446 38.14246,25.71608c11.07134,11.07087 19.64331,23.78502 25.71593,38.14246c0.54607,1.29096 1.06843,2.58723 1.56708,3.88883l-6.78334,-1.8696c-5.78521,-13.62238 -13.93603,-25.69202 -24.45245,-36.20891c-10.55765,-10.55713 -22.68009,-18.73033 -36.36734,-24.5196c-14.16945,-5.99315 -29.01355,-8.98972 -44.53232,-8.98972c-15.51876,0 -30.36287,2.99657 -44.53232,8.98972c-13.68725,5.78922 -25.8097,13.96242 -36.36734,24.5196c-2.97678,2.97691 -5.76402,6.07823 -8.36172,9.30396l-0.14499,-0.00098l-0.35123,0.00296l-3.0612,0.06803l-0.49319,0.0207l-3.05603,0.19447l-0.19024,0.0158c3.52933,-4.76411 7.43127,-9.28334 11.70582,-13.55771zM359.85243,319.85226c-11.07087,11.07134 -23.78502,19.64331 -38.14246,25.71593c-14.86549,6.28787 -30.43548,9.43181 -46.70997,9.43181c-16.27449,0 -31.84448,-3.14394 -46.70997,-9.43181c-14.35697,-6.07215 -27.07112,-14.64413 -38.14246,-25.71593c-4.21154,-4.21136 -8.06137,-8.66042 -11.5495,-13.34718l7.05799,-0.0122c2.62118,3.2626 5.43594,6.39813 8.44428,9.40661c10.55718,10.55718 22.67962,18.73038 36.36734,24.5196c14.16945,5.99319 29.01355,8.98979 44.53232,8.98979c15.51876,0 30.36287,-2.9966 44.53232,-8.98979c13.68725,-5.78922 25.8097,-13.96242 36.36734,-24.5196c3.00954,-3.00954 5.82534,-6.14628 8.44741,-9.41022h7.06638c-3.49117,4.69249 -7.34484,9.14682 -11.56101,13.36299z" data-paper-data="{&quot;isLogoContainer&quot;:true}"></path></g></g></svg>